# xmcd
#
# Track frame offsets:
# 150
# 15264
# 27853
# 43680
# 58497
# 68067
# 80721
# 94628
# 107468
# 125050
#
# Disc length: 1857 seconds
#
# Revision: 0
# Processed by: cddbd v1.5.1PL0 Copyright (c) Steve Scherf et al.
# Submitted via: Audion 3.0.2 (http://www.panic.com/audion/)
#
DISCID=7e073f0a
DTITLE=Kristy Jackson - Blue Shades
DYEAR=1900
DGENRE=
TTITLE0=i got it bad
TTITLE1=birds and the blues
TTITLE2=slow fuse
TTITLE3=count on nothin'
TTITLE4=me and mr pride
TTITLE5=talk to me
TTITLE6=take it back
TTITLE7=how close you came
TTITLE8=it's about time
TTITLE9=kick down the door
EXTD=
EXTT0=
EXTT1=
EXTT2=
EXTT3=
EXTT4=
EXTT5=
EXTT6=
EXTT7=
EXTT8=
EXTT9=
PLAYORDER=
